PathFileType	4	(X/Y/Z)	Kaydara	
DataRate	CameraRate	NumFrames	NumMarkers	Units	OrigDataRate	OrigDataStartFrame	OrigNumFrames	
240.00	240.00	4	72	mm	240.00	135	359	
Frame#	Time	Hips			RightUpLeg			RightLeg			RightFoot			RightFoot_End			LeftUpLeg			LeftLeg			LeftFoot			LeftFoot_End			Spine			Spine1			Spine2			Spine3			Neck			Head			Head_End			RightShoulder			RightArm			RightForeArm			RightHand			RightHandThumb1			RightHandThumb2			RightHandThumb3			RightHandThumb3_End			RightInHandIndex			RightHandIndex1			RightHandIndex2			RightHandIndex3			RightHandIndex3_End			RightInHandMiddle			RightHandMiddle1			RightHandMiddle2			RightHandMiddle3			RightHandMiddle3_End			RightInHandRing			RightHandRing1			RightHandRing2			RightHandRing3			RightHandRing3_End			RightInHandPinky			RightHandPinky1			RightHandPinky2			RightHandPinky3			RightHandPinky3_End			LeftShoulder			LeftArm			LeftForeArm			LeftHand			LeftHandThumb1			LeftHandThumb2			LeftHandThumb3			LeftHandThumb3_End			LeftInHandIndex			LeftHandIndex1			LeftHandIndex2			LeftHandIndex3			LeftHandIndex3_End			LeftInHandMiddle			LeftHandMiddle1			LeftHandMiddle2			LeftHandMiddle3			LeftHandMiddle3_End			LeftInHandRing			LeftHandRing1			LeftHandRing2			LeftHandRing3			LeftHandRing3_End			LeftInHandPinky			LeftHandPinky1			LeftHandPinky2			LeftHandPinky3			LeftHandPinky3_End			
		X1	Y1	Z1	X2	Y2	Z2	X3	Y3	Z3	X4	Y4	Z4	X5	Y5	Z5	X6	Y6	Z6	X7	Y7	Z7	X8	Y8	Z8	X9	Y9	Z9	X10	Y10	Z10	X11	Y11	Z11	X12	Y12	Z12	X13	Y13	Z13	X14	Y14	Z14	X15	Y15	Z15	X16	Y16	Z16	X17	Y17	Z17	X18	Y18	Z18	X19	Y19	Z19	X20	Y20	Z20	X21	Y21	Z21	X22	Y22	Z22	X23	Y23	Z23	X24	Y24	Z24	X25	Y25	Z25	X26	Y26	Z26	X27	Y27	Z27	X28	Y28	Z28	X29	Y29	Z29	X30	Y30	Z30	X31	Y31	Z31	X32	Y32	Z32	X33	Y33	Z33	X34	Y34	Z34	X35	Y35	Z35	X36	Y36	Z36	X37	Y37	Z37	X38	Y38	Z38	X39	Y39	Z39	X40	Y40	Z40	X41	Y41	Z41	X42	Y42	Z42	X43	Y43	Z43	X44	Y44	Z44	X45	Y45	Z45	X46	Y46	Z46	X47	Y47	Z47	X48	Y48	Z48	X49	Y49	Z49	X50	Y50	Z50	X51	Y51	Z51	X52	Y52	Z52	X53	Y53	Z53	X54	Y54	Z54	X55	Y55	Z55	X56	Y56	Z56	X57	Y57	Z57	X58	Y58	Z58	X59	Y59	Z59	X60	Y60	Z60	X61	Y61	Z61	X62	Y62	Z62	X63	Y63	Z63	X64	Y64	Z64	X65	Y65	Z65	X66	Y66	Z66	X67	Y67	Z67	X68	Y68	Z68	X69	Y69	Z69	X70	Y70	Z70	X71	Y71	Z71	X72	Y72	Z72	

135	0.558	2198.941	914.58397	126.699	2253.9502638244535	896.8008414581226	53.12799863707021	2158.758407210467	500.364732894163	-43.19692892145082	2141.4442012379386	108.89464760185365	-118.92578130635597	1989.890980169104	32.18335277542608	-31.26091819476641	2158.274856286838	906.1960842192126	211.58494100299842	2066.743871141945	504.3158244209051	285.89174227071766	1993.397710291322	79.93929083504922	376.00203749702763	1871.8541590900877	-2.4145300324650196	253.59353433858726	2132.147880825965	1032.0804199655167	79.51027733586217	2070.425408477624	1088.5038270043424	30.042938234023932	2003.3373151364365	1140.2251670762419	-25.291033709801106	1935.6189669342189	1178.2421314660237	-83.63679785872193	1862.108582853917	1219.3235030148446	-144.2955810992534	1793.492281299991	1257.1078793776514	-196.9318543446025	1654.342000060415	1334.4522346688198	-205.50169817882636	1906.65529529969	1206.0465820811767	-148.0585626320352	1964.5817472398073	1189.91284524728	-259.44127117484226	2035.362745402392	938.3275889217234	-279.2606012014236	2038.2939511538625	815.888109314684	-475.2971228635935	2044.6008018593454	829.2921017765436	-500.0257957984795	2029.8281594585605	834.4662054947796	-525.7030697402936	2019.4366438548566	834.7277069989891	-543.6921171028082	2010.684856778831	832.0869334684745	-558.7806760345342	2047.0460500644563	818.4308769656336	-503.0727416941462	2050.339434758882	810.4061176361573	-544.2177321954274	2040.672311219959	805.4185832323146	-570.7505343868185	2027.926987631527	805.9903228842451	-582.813055057928	2012.834527164799	808.9407629345496	-589.8070641785375	2046.080551973405	809.6495413001971	-501.8329297105512	2048.773996487957	797.0724316899956	-541.2944970625355	2038.0722305152947	790.4981343005433	-569.9473890327142	2022.6220146241556	790.6447673106175	-584.3565624523063	2006.072419350717	793.6090355715669	-591.9393535155956	2045.435797338737	803.6208062015578	-499.93726058518786	2047.6451737636637	787.029500182621	-533.7455220130254	2038.155486721936	780.1625469681442	-558.3506662815596	2023.1664932445926	779.7003045773839	-572.0535809826004	2007.564923043747	782.2013943350944	-579.0904906804877	2043.6408632248074	797.1372556387367	-496.3223767933253	2044.9691614319468	777.8211398755693	-525.2172149648778	2037.1069264180753	770.6214154622276	-544.1970422941723	2026.0465454886578	769.4614593678855	-553.8422312631977	2012.1528088659857	771.2034953564054	-559.8744967908892	1866.3128528762225	1205.4904221089757	-99.05802731840546	1816.052313774621	1148.2100617245953	2.394009171607179	1942.6458937122143	987.2993901265938	-161.3588498653096	2028.957962900118	871.4768853568397	-366.63603346618953	2054.79721594227	881.6574424757099	-383.6078060793577	2089.958634209675	872.0121693730158	-392.5890331000563	2113.629762312909	862.2021979975274	-399.73950674527447	2132.665902966514	851.3780628923321	-406.46700816958855	2053.4689756956664	872.6113311667955	-389.82772009820417	2091.2679772526435	858.076101507316	-422.3097873772071	2121.719406433913	842.0455691156017	-437.16324819784944	2140.658421082833	832.4798093855233	-438.8928567282009	2156.339211840576	824.8323218904441	-435.26224350160794	2050.1330173611623	864.4235945704298	-390.7655787249217	2085.1954266410744	845.8192958138843	-422.95710871933295	2117.866389870791	827.2862069009835	-439.173896593047	2140.4480390999765	815.2461173498643	-441.2647610982361	2157.4755837502703	806.6356268930011	-437.29422613950607	2046.7716769270132	859.0468229087247	-390.6903061424662	2075.1599203565215	837.8143566398297	-419.74130981503254	2103.011316456666	820.6261567784289	-433.8330844667685	2124.461336855218	808.4630659532112	-435.82711924547505	2140.314296227114	800.1066574022502	-432.0830191355424	2042.1169233159253	852.9797994159925	-388.94546882660643	2065.1630774629016	829.8845088451916	-414.83110488910063	2086.3672769300133	814.5989356199635	-425.92107601203384	2101.481789963109	804.9909284749566	-427.28159758505365	2115.21920906231	797.1648185792568	-423.91086458789835
136	0.563	2198.941	914.58397	126.699	2253.9046167339266	896.7585672043457	53.114401418414026	2158.6713314857957	500.32782278206315	-43.188820227594604	2141.4162800232257	108.85796088720545	-118.92330815272283	1989.865788549182	32.14594788427757	-31.254361296441466	2158.315382331961	906.236611916068	211.60031445738943	2066.7900259527205	504.3482412213388	285.869015501346	1993.4048456253252	79.97079066701353	375.93077966785	1871.8673860691194	-2.388439765174431	253.51991502496773	2132.1727685909027	1032.0902484203527	79.50312794109016	2070.4574067947933	1088.5010769139049	30.013684859160232	2003.3766045953785	1140.2100677661413	-25.340049197857635	1935.6615320876522	1178.2104828358872	-83.70085357378566	1862.1548144179399	1219.2752658668844	-144.37573164033984	1793.5433216960635	1257.048266409108	-197.02658848242254	1654.4198584288663	1334.4273278268818	-205.66114369016609	1906.6642268007993	1205.9268242649703	-148.13790107919831	1964.4265169560597	1189.5348315585456	-259.373189277408	2034.9928278951359	938.4100489597303	-278.7490746517285	2037.5555608248817	815.3445074709524	-473.9179852380465	2043.8449891034074	828.7701466167657	-498.53328119272527	2029.1356160609334	833.9536809077841	-524.1054175418668	2018.7878963362054	834.2185936134587	-542.0247239231445	2010.072395290087	831.5779632896638	-557.0581147559668	2046.279005557098	817.9001098752401	-501.5806143085534	2049.565236534295	809.8810292087003	-542.5730360497264	2039.9395304814582	804.8946994684233	-569.0085758510876	2027.2461872862261	805.4678114878017	-581.0245262267946	2012.2144510816922	808.4198048588486	-587.9893646955458	2045.3152427712334	809.1098622790076	-500.35598582085953	2048.002632715277	796.5334703015857	-539.6769534001528	2037.346369738819	789.9592896780599	-568.2262226764357	2021.9590178286664	790.1070028093035	-582.5804146313982	2005.4759376197035	793.0726927697528	-590.1318742582182	2044.6714226520983	803.0746915446362	-498.4748402818823	2046.8747971611547	786.4784734850359	-532.169416558722	2037.425100872242	779.6103971905611	-556.6870317045517	2022.4969218739427	779.1485439892235	-570.3383920361113	2006.9579753177443	781.650659977012	-577.3465436701491	2042.881506931111	796.5834965421508	-494.88188842094536	2044.205803993622	777.2581880619381	-523.685596628353	2036.3761370123595	770.0556738933725	-542.6001791101322	2025.36037912294	768.8950886238963	-552.2101101171654	2011.5222688456568	770.6375099699807	-558.2182483217699	1866.3956819124382	1205.5269273621036	-99.12909142107401	1816.2280068666937	1148.5781434898104	2.335350635133308	1942.3886974437355	987.4954090312268	-160.8141078739681	2028.051695485785	871.110354416229	-365.36268097635667	2053.7763142218064	881.2702452035545	-382.27050767484735	2088.8002544934893	871.602539116551	-391.2533595615123	2112.3785413524483	861.7779472849504	-398.4041910929451	2131.33976151804	850.9424868398116	-405.1313270732675	2052.449226244866	872.2260079583624	-388.47361155100435	2090.0799607520576	857.6650725979798	-420.8647688775078	2120.407413760435	841.6157727691478	-435.6985962387707	2139.276275277962	832.039036806688	-437.4476327010006	2154.9036685776696	824.3829314154838	-433.8544370566623	2049.1266758147476	864.0418597392793	-389.41460308823247	2084.0322148558375	845.4144332311873	-421.51914288106923	2116.5702036807966	826.8614180590597	-437.71527072882225	2139.068320915133	814.808352284983	-439.82993771531187	2156.037979799283	806.1885620846964	-435.9005229882136	2045.7791559951079	858.6682903610011	-389.34339603052194	2074.0389739720254	837.4179042430046	-418.3186062576809	2101.777070704823	820.212943897909	-432.3932933859137	2123.1479033072364	808.0376559437599	-434.4107792725903	2138.947089947531	799.6726542609005	-430.70557513880266	2041.144772225744	852.6056178314543	-387.6095527415212	2064.0858217878017	829.4966029044753	-413.43085448684036	2085.203920480557	814.198628145087	-424.5089148349292	2100.2629096779337	804.5822187508387	-425.8873978822554	2113.9539790404465	796.7487825889718	-422.5516153272514
137	0.567	2198.941	914.58397	126.699	2253.859749087723	896.7153950347159	53.10172705983905	2158.595491808541	500.2921200866561	-43.198926844994006	2141.3969703202183	108.82268689141395	-118.93939093600186	1989.8482181641273	32.11320394674509	-31.26523418916859	2158.3549206454336	906.2781202103339	211.6152171853074	2066.8348866947103	504.3788943824643	285.83103802938456	1993.4077379210369	79.99979779516377	375.83840707340755	1871.8754280937078	-2.3626361149205932	253.42463878338833	2132.198557994181	1032.0997470617333	79.49391253942507	2070.488071448552	1088.4926566421411	29.978989400448995	2003.4118670007	1140.181890939464	-25.39830529672796	1935.6970909463032	1178.1557287525309	-83.77751458455053	1862.1910040583568	1219.1937320959537	-144.47199264834873	1793.5817594963128	1256.9468051937608	-197.14042458960202	1654.485099452015	1334.3615179680396	-205.82851901844046	1906.6627855847596	1205.773229095931	-148.2341826807069	1964.2584449996482	1189.120376714492	-259.3208311603461	2034.5912857673372	938.4516720124357	-278.2462759676861	2036.7829283919912	814.4311551824644	-472.4848869272151	2043.0546852894538	827.8789763539288	-496.98500250191387	2028.409520801192	833.071550871321	-522.4507550222268	2018.106347938796	833.3395923465127	-540.2994778236585	2009.4278379374875	830.6988602933202	-555.2770226819124	2045.4776970112302	817.0002399519828	-500.0325741434875	2048.757491962015	808.987353027537	-540.8698899665386	2039.1741959067301	804.0020472187944	-567.2068305486621	2026.53358696133	804.5760927678994	-579.175790795635	2011.5632916021948	807.5290543219013	-586.1113874687424	2044.5159275381372	808.2010079081566	-498.8233113143055	2047.19810318492	795.6257984364387	-538.00130285062	2036.5884571913907	789.05152687365	-566.4455241738103	2021.2648959147377	789.1997825299576	-580.7442426231577	2004.8491211776523	792.1662521453851	-588.2643009202754	2043.8732013420333	802.1593439614081	-496.9568773903342	2046.0714523246058	785.5585948489813	-530.5357890071259	2036.6627506361797	778.6892003241192	-554.964668816767	2021.7962952894777	778.2272127292915	-568.5640223789494	2006.3207242625354	780.7297491446245	-575.543358886034	2042.088499125399	795.6603789125659	-493.3861851089109	2043.409708358023	776.3261700758742	-522.0971331475236	2035.6134603998055	769.120688080552	-540.9455727750217	2024.6430107054246	767.9590809906348	-550.5199471315082	2010.8612052544836	769.7013426226948	-556.5039264553785	1866.4708871573384	1205.537651623949	-99.21310046713367	1816.3918761012999	1148.922165791894	2.258161117207999	1942.1385777085802	987.7053414932473	-160.28570903229755	2027.1869659063514	870.9114186868624	-364.11402153804875	2052.78084553945	881.0698936958353	-380.9360083246188	2087.667110223695	871.4043852805014	-389.9174650724651	2111.1545971130768	861.5838650867688	-397.0686780334343	2130.0444637585915	850.7539786864853	-403.797288781593	2051.4601052460634	872.0351674364753	-387.12634767217116	2088.918932461829	857.4938013694782	-419.4140101067155	2119.125974108401	841.4553530721449	-434.227837257864	2137.9287526095645	831.8802520662929	-435.9999237563366	2153.5073698299984	824.2220536982613	-432.4497398231378	2048.157309002134	863.8571282806975	-388.077094194667	2082.905857875045	845.2520976724142	-420.08594957030823	2115.315618919224	826.7116600975099	-436.2619408401763	2137.7355264633034	814.6609220518553	-438.40522490873605	2154.6525537518232	806.0390147908231	-434.5232691264686	2044.8281369243502	858.4874262647562	-388.01487940756886	2072.9632102643814	837.260605709378	-416.91056462784803	2100.5930218698304	820.0673304049855	-430.9695810560789	2121.8902651601225	807.8946687021694	-433.0156716651341	2137.6408408218435	799.5278550989287	-429.3555630644316	2040.2198283817454	852.4282576414894	-386.2986541763104	2063.062504365995	829.3431894211386	-412.05603042084357	2084.099866979751	814.055590790836	-423.12483003006906	2099.1080702849267	804.4415903351428	-424.52576532922524	2112.757740466241	796.6068340618687	-421.23084721198455
138	0.571	2198.941	914.58397	126.699	2253.816081833359	896.6719735601222	53.090093157511404	2158.532740726458	500.25858501592757	-43.22988579440792	2141.385669382643	108.78973091261489	-118.97571355861001	1989.8383952188453	32.085615106106246	-31.294322500626876	2158.3930838537894	906.3199379146539	211.62943482956072	2066.8751161069313	504.409179917909	285.7850663605513	1993.3991162272246	80.02750178669045	375.7281197469751	1871.869912264113	-2.335039014296086	253.31140400118636	2132.2250794848196	1032.108989805774	79.48305487001481	2070.5184670147332	1088.4818343546983	29.941381315460735	2003.4448371420326	1140.1463173609134	-25.461800800473416	1935.7283426524962	1178.0876575249822	-83.86114622624915	1862.2207134551816	1219.0924795712936	-144.57713340043745	1793.6117630200088	1256.8198459769665	-197.26488643619484	1654.5387256853587	1334.2642857829364	-206.00274299051955	1906.6548851738162	1205.601173200903	-148.33924404165813	1964.0805827228005	1188.686302742361	-259.2765494307744	2034.117011231291	938.4331805458114	-277.692519035456	2035.9539038283604	813.4251668476139	-470.99873544961906	2042.205301085785	826.8965533019974	-495.3804485882971	2027.6238495151283	832.0978978850085	-520.7373492172542	2017.3652554363896	832.368974325496	-538.5138952268551	2008.724082667652	829.7281431995887	-553.4343749112854	2044.618270878836	816.009812302883	-498.4283254861403	2047.8909883759188	808.0056565108689	-539.1065755216068	2038.3503960361538	803.0219182284736	-565.342645010478	2025.7628566705112	803.5962902913132	-577.2636741531226	2010.854379375596	806.549080665049	-584.1695670132469	2043.6595754693665	807.2017067326335	-497.2349339768773	2046.3364963861075	794.6302161328746	-536.2663600209797	2035.7739339873817	788.0564520468005	-564.6031346683519	2020.5146364317275	788.2045197959438	-578.8452817910176	2004.1666147393084	791.1705232086125	-586.3334517273275	2043.0187167509757	801.1535777229003	-495.38366485189556	2045.2124646798627	784.5506322033004	-528.8440730581299	2035.8453148880367	777.6804414092974	-553.182213720573	2021.0411171008996	777.2176160856591	-566.7285494786191	2005.6293804716272	779.719403227172	-573.6786340573905	2041.240180316759	794.6466940295762	-491.8359067513904	2042.559438996814	775.305682536489	-520.4518906857585	2034.7972866948612	768.0976417999327	-539.23273195651	2023.8726471386492	766.9344948913366	-548.7708837494733	2010.1476159630856	768.6755560858878	-554.730358695246	1866.5410572260666	1205.5317247973326	-99.3048252051718	1816.547537604189	1149.2513021267998	2.1683709949759975	1941.9035797434917	987.9499601266	-159.7701056578353	2026.396826854024	870.9954711436046	-362.9051967597611	2051.8392693126316	881.1776613047961	-379.6133301184887	2086.587884507996	871.5462504873148	-388.58966263716536	2109.9874005463007	861.75400350238	-395.741456864893	2128.8106782599357	850.9515642836631	-402.47410198772485	2050.531566606777	872.1623478787972	-385.7963643193536	2087.81397338415	857.6993838783428	-417.96508306784983	2117.905434477758	841.7101723241533	-432.7588255740331	2136.6475686526214	832.1529855656613	-434.5586842310809	2152.1835542909726	824.501051835277	-431.0586422414507	2047.2567090768368	863.9936476334385	-386.7655165091401	2081.848291159068	845.4701446265245	-418.66829761518636	2114.136199803413	826.9844040205742	-434.8252640153206	2136.4849899158007	814.9557457288637	-437.00344207704296	2153.35636466819	806.3409209990219	-433.1770275752185	2043.9517194942111	858.6286454690144	-386.7187086572558	2071.966947327198	837.4792544747538	-415.5308515908104	2099.4951613533026	820.3345182581028	-429.5764168430211	2120.726254207955	808.1836121649791	-431.6578287891617	2136.4350662682186	799.8236722080226	-428.0507286170687	2039.3768406874199	852.571836948338	-385.02867388878366	2062.1299575620083	829.5596025736121	-410.7234087637655	2083.0936787960263	814.3118804007102	-421.7866912003931	2098.0573647329184	804.7142364094838	-423.21592967955525	2111.6721879302886	796.8858500975637	-419.96943331437745
